<?xml version="1.0" encoding="UTF-8"?>
<svg id="_Слой_1" data-name="Слой 1" xmlns="http://www.w3.org/2000/svg" width="2960.924" height="259.678" viewBox="0 0 2960.924 259.678">
  <path d="M1343.814,114.911c8.171-1.543,17.008-4.294,22.805-4.316l51.799-.2c8.883,17.191,15.275,102.952-17.106,92.672-40.845-12.967-100.939-89.855-123.217-127.335-9.383-15.786-15.073-35.826-6.271-52.131,11.486-21.277,39.954-22.3,57.4-7.702,15.459,12.935,17.095,29.572,22.414,51.245,6.165-15.871,4.798-29.911,6.799-47.365-18.263-15.852-44.724-23.812-69.929-17.744-20.84,5.017-38.532,19.382-43.04,40.597-4.316,20.311,4.106,39.106,15.169,56.522-20.413,8.148-40.412,15.86-52.2,32.691-13.358,19.073-14.554,42.02-3.338,61.094,10.553,17.946,31.812,26.929,54.621,25.567,26.492-1.583,47.415-18.292,62.204-41.261,25.802,26.337,59.09,53.035,94.703,32.81,14.993-8.515,38.85-26.015,40.365-46.216,1.474-19.645-24.82-37.431-35.844-52.502,8.87-5.735,29.696-10.856,36.213-21.398l-93.721.08-19.826,24.893ZM590.569,88.158c15.087-3.594,31.443-15.191,36.852-31.254,2.969-8.817-2.134-17.525-9.543-19.322-5.425-1.316-15.778,3.085-13.67,10.146,1.382,4.629,6.882,15.251,4.222,19.241-4.479,6.719-11.737,14.3-17.861,21.19ZM2061.024,78.63l23.384-22.329c3.773-3.603,2.128-14.917-2.352-15.981-16.805-3.994-22.797,30.304-42.907,50.625,6.568-1.294,15.257-5.996,21.875-12.315ZM918.463,44.238c-2.331-1.492-11.365-1.582-13.224.862l-32.921,43.289c10.851-.019,59.663-35.5,46.144-44.151ZM2376.465,206.513c30.619-.26,43.474-18.283,53.097-42.865,2.8,12.243,5.564,26.389,14.943,35.076,17.648,16.348,46.257,11.45,56.969-9.938-15.081,5.892-29.696,8.591-41.495-.962-9.463-7.661-16.896-25.633-11.364-37.399l57.596-.344c2.808-14.485-5.872-26.629-16.44-32.787-10.971-6.393-25.373-4.773-36.735,2.303-11.557,7.197-16.862,20.134-22.876,32.556-6.488-27.36-25.86-42.643-53.736-41.741l-.383-67.087-28.125,8.926c6.229,4.299,11.936,9.892,11.751,16.871l-1.097,41.284c-21.547,2.163-39.96,13.164-46.781,30.586-7.276,18.584-4.645,40.172,10.746,53.615,9.753,8.518,21.497,10.753,36.45,13.259l.563,32.563c.104,5.996-6.374,11.381-12.85,17.195l41.796-.673c-5.491-3.89-12.711-9.122-12.641-13.361l.613-37.075ZM23.82,125.135c4.759-7.353,13.634-10.839,20.682-10.105,14.894,1.55,12.801,17.613,23.865,17.46,2.493-.035,5.89-4.774,6.146-7.255,1.88-18.191-30.73-18.797-49.453-8.666C.435,129.893-10.003,171.856,12.132,195.782c8.859,9.576,22.71,13.722,36.585,10.564,9.552-2.174,21.904-10.99,26.33-22.594-14.418,12.066-36.333,15.998-48.614-.057-12.399-16.208-14.34-40.44-2.614-58.56ZM158.457,129.99c-9.401-14.738-24.393-22.226-40.892-19.957-15.439,2.123-27.894,11.286-34.657,27.354-9.016,21.42-5.802,47.72,14.163,61.992,11.757,8.404,26.669,10.055,40.415,4.661,26.075-10.233,35.797-50.807,20.971-74.049ZM168.058,183.464c-6.017,25.3,40.711,30.995,59.626,14.387,6.877-6.038,7.94-18.751,4.841-27.408-2.26-6.313-12.106-11.992-20.248-16.019,8.4-4.856,18.078-11.504,19.103-18.556,1.34-9.219-4.595-18.819-13.638-22.597-13.094-5.47-30.506-3.045-43.798,1.771-2.538,4.452-3.391,14.345-2.432,18.146,7.944-9.991,15.424-19.825,26.744-19.126,14.038.866,17.79,14.214,14.949,24.69-3.02,11.135-13.769,13.312-25.416,16.057,13.302,3.761,24.838,6.85,27.222,16.884,2.712,11.417.69,25.786-11.209,29.329-15.614,4.65-27.428-6.872-35.745-17.558ZM319.814,228.826c1.223-10.458,1.381-19.56.774-25.994-5.941-2.239-10.654-3.711-13.299-5.375-2.204-1.387-3.264-8.772-3.256-11.401l.201-67.315,8.168-6.833-55.593-.68c5.298,11.969,2.394,93.29-25.338,91.502l.296,26.651c5.536-13.494,10.527-25.643,27.08-25.279l34.466.757c15.465.34,21.347,11.484,26.501,23.966ZM458.922,202.731c14.248-3.523,20.764-16.813,18.243-28.785-2.04-9.687-11.755-15.284-25.246-19.024,10.573-4.2,20.728-11.276,20.493-21.839-.685-30.857-55.81-21.182-73.962-19.904,4.804,4.343,10.222,9.022,10.189,13.967l-.454,68.143c-.009,1.284-5.358,6.139-6.176,6.949s-1.974-1.83-1.846-2.979l.449-4.05-8.504.983c-1.969.227-4.13-5.49-4.156-7.49l-.769-59.279c-.183-14.101-17.401-20.291-28.77-19.842-14.018.553-27.326,7.131-32.02,19.75-.753,2.025-.365,9.39,1.8,9.534l9.452.629c5.126.341-2.018-17.729,12.865-24.853,4.143-1.983,11.975.891,16.188,6.069,5.215,6.41,9.192,24.811,2.157,29.7-14.568,8.819-58.657,16.181-46.498,45.512,3.189,7.692,14.943,13.789,24.685,10.614,7.986-2.603,16.687-8.045,23.189-11.781,2.895,4.832,5.975,10.661,9.435,11.582,2.965.789,10.419-.822,14.19-1.044,21.497-1.265,43.991,2.649,65.068-2.563ZM499.849,207.2c11.155-.538,21.759-7.64,29.496-12.578,3.981,7.619,9.983,13.927,17.583,12.391,6.459-1.305,15.243-7.023,15.442-11.546-6.093-.176-13.042-.634-14.514-3.43l-.52-57.174c-.142-15.605-10.265-24.521-25.135-25.239-13.937-.672-29.486,5.485-36.294,17.562-1.365,2.422-1.476,11.037,1.207,11.398l9.196,1.241c7.37.994-.866-20.943,13.878-24.754,4.918-1.271,14.301,1.479,17.029,6.378,4.506,8.091,4.819,21.863,1.143,28.822-19.103,9.537-51.973,15.632-47.884,41.037,1.19,7.394,8.127,16.434,19.373,15.892ZM614.409,205.47l37.357-.657c-3.68-3.104-10.153-7.575-10.147-11.145l.124-79.738c-1.385-2.454-10.364-4.727-12.466-3.015-3.73,3.037-33.435,61.946-42.062,73.147l-.29-73.542-27.007,2.608c4.04,3.361,10.679,8.131,10.658,11.828l-.453,77.656c1.284,1.536,10.418,4.043,11.859,1.77,11.922-18.811,26.303-50.901,41.739-73.252l1.482,61.114c.087,3.603-5.102,7.982-10.793,13.226ZM769.48,127.773c-2.415,4.978,1.142,12.765,4.721,12.533,4.725-.306,9.137-4.075,9.723-7.8,1.163-7.391,2.378-13.006,5.33-15.698,2.951-2.692,14.442-2.365,17.568.307,7.256,6.202,12.438,25.562,4.719,31.95-11.009,9.111-28.982,10.296-38.873,20.531-9.043,9.358-16.741,20.829-29.729,23.819-15.448,3.557-30.069-3.309-36.097-17.503-12.37-29.131.511-62.035,21.205-61.077,17.592.814,18.079,25.858,29.185,17.683,2.735-2.013,3.421-11.509,1.738-14.42-6.535-11.307-40.109-11.733-57.518,5.84-12.183,12.298-17.816,30.381-15.003,48.234,2.417,15.337,11.492,27.898,23.596,32.694,14.671,5.813,29.907,2.728,41.36-7.86l11.511-10.642c2.132,6.381,4.377,13.26,7.184,16.559,9.41,11.056,31.305.559,43.305-8.919,1.094,1.972,5.007,9.469,7.468,11.125,7.325,4.93,24.779-.432,26.389-10.984l-11.575,1.689c-2.45.358-4.618-7.331-4.6-9.838l.385-51.227c.122-16.283-13.509-26.176-29.4-24.716-12.735,1.17-25.999,4.126-32.592,17.719ZM898.988,205.202l37.821-.139c-6.634-5.12-10.921-7.935-10.893-13.912l.357-74.629c.019-4.053-11.968-6.082-13.872-3.278-9.392,13.826-28.479,53.402-40.868,69.958l.103-72.643-28.838,2.7c5.782,3.915,11.298,8.006,11.26,13.071l-.567,74.913c.032,2.712,9.713,5.742,11.793,3.851,2.092-1.902,4.045-5.662,6.296-9.643l36.467-64.482c1.792,21.095,1.769,42.166,1.288,62.91-.08,3.441-6.605,7.973-10.348,11.324ZM1013.604,115.034c7.673-.947,13.082,4.736,13.21,10.962l1.288,62.895c.119,5.81-4.862,11.925-9.884,16.707l53.082-.976c13.053-.24,22.966-11.486,24.554-20.578,2.056-11.775-.92-24.705-13.001-29.267-11.957-4.515-23.302-3.834-38.836-4.311l.521-30.776,8.024-7.706-114.392-.259-1.528,23.084c4.245-6.179,7.198-11.79,11.208-15.222,3.461-2.962,13.802-2.95,18.346-1.192l.232,72.94c.007,2.357-1.811,7.381-3.449,8.486l-8.18,5.513,38.884-.438c-5.222-3.792-11.233-8.071-11.2-12.926l.508-74.666c6.486-1.378,17.068-.804,19.661,3.153l9.189,14.026,1.764-19.449ZM1134.878,205.111c-4.146-5.043-8.969-10.593-8.971-14.033l-.032-65.023c-.002-4.226,4.681-10.55,8.542-14.425l-36.525,1.221c4.905,3.73,11.916,7.711,11.899,13.456l-.207,68.864c-.011,3.589-9.303,7.536-11.64,9.741l36.934.199ZM1673.044,171.372c3.482-14.526,1.751-29.795-7.102-41.666-8.035-10.773-20.66-16.887-33.111-16.687-31.702.509-47.295,35.143-42.528,59.16,4.393,22.135,21.56,36.782,42.312,35.834,20.44-.934,35.088-14.363,40.428-36.641ZM1872.14,206.038c19.131,3.085,37.008,1.474,50.463-12.121,15.508-15.669,18.423-41.25,9.774-61.524-5.134-12.035-17.005-19.898-27.624-20.074-12.375-.205-23.311,4.66-30.168,14.222l-5.068-14.642-24.857,12.37c3.735,1.676,11.619,5.947,11.628,9.798l.267,107.529c.021,8.551-5.827,12.567-12.517,16.818l43.197-.243c-23.857-5.365-14.452-30.632-15.096-52.133ZM2304.594,184.393c-15.316,11.291-31.19,13.774-43.776,4.386-11.737-8.754-15.713-23.878-13.324-38.191l59.104-.49c.643-13.644-6.722-26.543-16.898-32.534-11.548-6.8-24.95-5.379-36.632,1.385-14.516,8.405-20.026,24.506-22.715,40.081-3.395-15.63-6.239-30.931-17.8-40.105-15.32-12.157-35.027-6.551-48.231,7.922l-3.391-14.69-25.399,11.553,11.338,7.944-.103,111.028c-.006,6.614-6.251,11.826-11.859,15.708l43.262-.235-11.683-5.703c-2.272-1.109-4.234-7.141-4.201-9.828l.451-36.514c31.989,7.02,57.641-8.839,65.704-38.45,3.131,9.8,5.988,19.615,12.316,28.315,7.802,10.726,26.419,15.313,40.804,10.3,8.757-3.052,18.749-11.052,23.032-21.883ZM2675.979,184.555c-13.912,10.291-30.599,14.159-43.731,4.241-11.359-8.579-15.123-23.519-14.825-38.403l59.384-.19c3.025-12.674-5.226-25.611-13.773-31.26-11.812-7.807-24.474-6.877-36.049-.841-14.922,7.781-22.429,22.528-25.35,38.383-4.335-17.456-8.619-33.836-24.113-41.25-15.115-7.232-30.276-.592-42.15,9.151l-4.113-12.38-24.064,10.651c4.203,3.03,10.207,8.007,10.209,12.375l.04,107.6c.003,7.367-4.779,11.527-11.091,15.86l43.4-.293-11.942-5.353c-2.44-1.094-4.997-7.525-4.95-10.336l.618-37.253c16.587,3.826,31.502,3.424,45.639-6.608,10.239-7.266,15.475-20.638,20.974-35.866,2.898,22.197,11.45,39.627,29.716,44.087,18.967,4.631,40.151-3.418,46.171-22.315ZM2798.944,187.294c-15.708-16.187-15.56-42.416-3.773-59.404,4.318-6.224,12.359-10.598,19.089-9.772,14.953,1.834,13.565,20.45,27.326,16.687,2.866-.784,3.5-13.067.906-14.909-18.813-13.356-52.249-5.43-63.636,17.469-10.255,20.622-11.772,42.156,4.397,60.238,8.504,9.509,23.887,12.705,38.18,8.973,8.637-2.256,20.209-10.957,23.442-22.187-11.73,10.934-32.613,16.63-45.931,2.906ZM1556.431,156.226l12.147-22.382,21.337-16.998-28.869-.82c3.912,6.086,6.78,8.917,6.454,11.576-.659,5.371-13.359,33.857-30.408,28.037l.543-28.637c.049-2.589,4.848-8.138,6.802-11.036l-33.17.529c2.226,2.342,9.458,7.537,9.469,10.93l.21,66.786c.01,3.258-6.151,7.204-10.856,10.567,11.983.749,26.027.669,37.967-.184-4.227-2.971-10.96-7.299-10.922-10.707l.356-32.261c14.295-5.664,26.566,35.864,29.369,43.377l29.393-.245c-23.181-15.741-17.229-33.261-39.822-48.534ZM1770.178,127.033l.146,75.517c.192,2.406,10.366,4.492,12.583,1.955,1.848-2.115,3.751-6.449,5.72-10.007l34.379-62.119,1.406,58.61c.107,4.456-5.365,9.721-10.124,13.852l34.49.645c-6.183-5.34-9.743-11.431-9.59-19.578l1.273-68.095c-.632-1.523-10.195-3.016-13.065-1.456-2.392,1.3-4.107,5.659-6.091,9.147l-33.347,58.656c-1.617-24.476-1.457-44.35.454-68.513l-110.505.455c4.271,5.482,7.733,10.81,7.773,15.043l.547,57.907c.059,6.213-3.662,10.562-9.137,16.057l32.356-.176c-3.573-4.085-7.776-8.364-7.78-11.062l-.105-72.351,33.142-.022.994,70.069c.061,4.293-5.353,9.127-10.199,13.455l35.205-.194c-6.842-4.656-10.551-8.107-10.429-16.208l.956-63.411c.044-2.945,7.182-7.408,10.011-6.586,2.361.686,8.933,5.231,8.939,8.409ZM2065.233,204.844l31.825.391c-3.738-4.345-7.844-9.205-7.836-13.615l.142-73.576c-1.593-2.23-11.752-3.883-13.344-1.115l-5.582,9.707-32.844,55.603c-1.915-23.868-1.49-43.347-.332-66.86l-47.267.562c4.346,3.721,8.856,9.461,7.729,12.814l-18.474,54.96-19.774-54.54c-1.437-3.964,4.822-11.075,8.056-13.203l-40.038-.176c5.433,3.798,11.781,7.939,13.739,13.039l30.12,78.422c-6.139,14.773-8.579,43.442-27.647,34.891-4.612-2.068-10.977.766-11.587,4.364-.831,4.893,2.909,12.337,7.981,13.01,10.162,1.348,20.274-6.051,23.893-16.559l39.523-114.764c1.005-2.919,6.37-7.054,8.959-7.7s7.034,5.653,7.04,8.353l.153,75.55,14.463-.556,37.874-69.917,1.595,57.388c.12,4.322-4.831,9.703-8.363,13.53ZM2767.043,205.238c-4.247-5.378-7.945-9.807-7.934-13.215l.206-63.34c.01-3.071,3.675-8.3,7.484-12.713l-33.151,1.186c3.459,2.963,9.398,8.331,9.415,11.655l.141,27.712-36.681.787c-1.453-14.37-1.243-27.136,2.837-41.184l-27.951,1.139c4.588,4.356,8.64,8.523,8.599,14.634l-.427,63.872c-.02,2.924-7.16,6.372-10.905,9.141l37.885-.1c-3.466-2.626-10.73-6.211-10.746-8.806l-.212-34.368,37.935.149-.339,33.861c-.024,2.429-6.66,7.781-8.63,9.818l32.472-.229ZM2924.036,176.562c-.92-11.916-10.397-22.084-24.817-22.695l-24.48-1.037c-3.241-11.254-4.879-26.038,7.045-35.593-11.308-.63-23.648-.58-34.818-.071,6.317,4.794,10.502,9.858,10.497,17.056l-.044,60.099c-.003,3.63-5.087,8.565-8.691,11.52,25.032-2.318,78.373,10.422,75.308-29.28ZM2960.924,205.183c-4.487-4.968-8.299-9.121-8.305-12.07l-.121-64.202c-.008-4.093,4.022-8.963,8.287-12.455l-34.548.805c4.555,4.079,9.566,9.526,9.554,13.752l-.165,61.01c-.01,3.571-4.735,8.736-8.89,13.602l34.187-.442Z" style="fill: #fff;"/>
  <path d="M1343.814,114.911l19.826-24.893,93.721-.08c-6.517,10.542-27.343,15.664-36.213,21.398,11.024,15.072,37.318,32.858,35.844,52.502-1.515,20.201-25.372,37.701-40.365,46.216-35.613,20.224-68.901-6.473-94.703-32.81-14.789,22.969-35.712,39.678-62.204,41.261-22.809,1.363-44.068-7.621-54.621-25.567-11.216-19.073-10.02-42.021,3.338-61.094,11.788-16.831,31.787-24.543,52.2-32.691-11.063-17.416-19.485-36.211-15.169-56.522,4.508-21.215,22.2-35.58,43.04-40.597,25.205-6.068,51.665,1.892,69.929,17.744-2.001,17.454-.634,31.494-6.799,47.365-5.319-21.673-6.954-38.31-22.414-51.245-17.446-14.598-45.914-13.575-57.4,7.702-8.802,16.305-3.112,36.345,6.271,52.131,22.278,37.48,82.371,114.368,123.217,127.335,32.381,10.28,25.989-75.481,17.106-92.672l-51.799.2c-5.796.022-14.633,2.773-22.805,4.316ZM1316.277,172.253l-52.54-67.243c-21.816,3.645-36.126,22.362-38.694,42.776-2.608,20.732,6.525,41.848,26.535,50.809,25.082,11.233,53.767-2.199,64.698-26.343Z"/>
  <path d="M2376.465,206.513l-.613,37.075c-.07,4.24,7.15,9.471,12.641,13.361l-41.796.673c6.476-5.814,12.954-11.199,12.85-17.195l-.563-32.563c-14.953-2.506-26.696-4.741-36.45-13.259-15.392-13.442-18.023-35.031-10.746-53.615,6.821-17.422,25.234-28.423,46.781-30.586l1.097-41.284c.186-6.98-5.521-12.572-11.751-16.871l28.125-8.926.383,67.087c27.876-.903,47.249,14.381,53.736,41.741,6.014-12.422,11.319-25.359,22.876-32.556,11.362-7.076,25.764-8.696,36.735-2.303,10.567,6.158,19.248,18.302,16.44,32.787l-57.596.344c-5.533,11.766,1.901,29.738,11.364,37.399,11.799,9.553,26.414,6.853,41.495.962-10.712,21.388-39.321,26.286-56.969,9.938-9.378-8.687-12.143-22.834-14.943-35.076-9.623,24.582-22.478,42.606-53.097,42.865ZM2359.376,201.37l-.192-85.591c-34.52-.857-35.123,45.219-28.982,65.375,4.005,13.147,14.117,22.787,29.174,20.216ZM2407.617,179.527c3.151-12.073,2.876-26.669.339-37.913-3.519-15.595-16.302-27.412-31.802-25.314l-.358,85.333c16.045,1.251,27.842-6.857,31.821-22.106ZM2489.052,145.39c.813-6.463-1.141-15.399-4.635-20.369-3.979-5.659-14.178-9.252-20.744-6.475-10.958,4.634-15.287,15.103-16.438,26.733l41.817.111Z"/>
  <path d="M2682.477,177.939c-6.02,18.897-33.703,33.562-52.669,28.931-18.266-4.46-26.818-21.89-29.716-44.087-5.499,15.228-10.735,28.6-20.974,35.866-14.137,10.032-29.052,10.434-45.639,6.608l-.618,37.253c-.047,2.811,2.51,9.242,4.95,10.336l11.942,5.353-43.4.293c6.312-4.332,11.094-8.493,11.091-15.86l-.04-107.6c-.002-4.368-6.006-9.345-10.209-12.375l24.064-10.651,4.113,12.38c11.874-9.743,27.036-16.382,42.15-9.151,15.494,7.413,19.778,23.794,24.113,41.25,2.921-15.855,10.428-30.602,25.35-38.383,11.575-6.036,24.236-6.966,36.049.841,8.548,5.649,16.799,18.587,13.773,31.26l-59.384.19c-.298,14.884,3.466,29.824,14.825,38.403,13.132,9.918,36.317-.567,50.229-10.857ZM2660.287,145.038c-1.433-11.324-3.09-18.113-7.95-22.8-5.534-5.337-15.505-5.881-21.967-1.716-8.813,5.68-12.143,15.441-12.557,25.165l42.474-.649ZM2572.888,194.708c16.422-24.759,10.115-62.011-12.027-67.847-7.476-1.97-25.201-.675-26.332,8.375-2.363,18.898-1.881,36.484-.479,56.143.43,6.033,12.134,12.114,17.713,12.896,6.003.842,16.818-3.075,21.124-9.567Z"/>
  <path d="M2306.637,170.28c-3.769,6.673-16.144,31.537-25.075,35.995-13.63,6.804-33.002.427-40.804-10.3-6.328-8.7-9.185-18.515-12.316-28.315-8.063,29.611-33.715,45.469-65.704,38.45l-.451,36.514c-.033,2.687,1.929,8.719,4.201,9.828l11.683,5.703-43.262.235c5.608-3.882,11.853-9.094,11.859-15.708l.103-111.028-11.338-7.944,25.399-11.553,3.391,14.69c13.204-14.473,32.911-20.079,48.231-7.922,11.56,9.174,14.404,24.475,17.8,40.105,2.689-15.576,8.199-31.676,22.715-40.081,11.682-6.764,25.084-8.185,36.632-1.385,10.176,5.991,17.541,18.89,16.898,32.534l-59.104.49c-2.389,14.313,1.587,29.436,13.324,38.191,12.586,9.388,30.503-7.207,45.819-18.498ZM2288.737,145.271c-1.333-11.262-2.653-16.822-6.797-22-3.404-4.253-14.253-7.255-19.236-4.737-10.581,5.345-14.891,15.412-15.407,26.736h41.44ZM2209.08,146.352c-2.576-9.85-10.905-16.636-17.997-19.251-8.414-3.103-22.423-1.25-27.261,6.856-1.683,18.634-1.768,37.137-.411,56.94.595,8.676,16.211,13.55,23.323,13.237,21.273-.938,28.454-34.429,22.346-57.781Z"/>
  <path d="M458.922,202.731c-21.078,5.211-43.571,1.297-65.068,2.563-3.771.222-11.225,1.833-14.19,1.044-3.46-.921-6.539-6.75-9.435-11.582-6.502,3.736-15.203,9.178-23.189,11.781-9.741,3.175-21.496-2.921-24.685-10.614-12.159-29.332,31.931-36.693,46.498-45.512,7.035-4.889,3.058-23.29-2.157-29.7-4.213-5.179-12.045-8.053-16.188-6.069-14.884,7.124-7.74,25.194-12.865,24.853l-9.452-.629c-2.164-.144-2.553-7.51-1.8-9.534,4.694-12.619,18.002-19.197,32.02-19.75,11.37-.448,28.587,5.741,28.77,19.842l.769,59.279c.026,1.999,2.187,7.717,4.156,7.49l8.504-.983-.449,4.05c-.127,1.149,1.026,3.791,1.846,2.979s6.168-5.665,6.176-6.949l.454-68.143c.033-4.945-5.385-9.624-10.189-13.967,18.152-1.278,73.277-10.952,73.962,19.904.235,10.563-9.92,17.639-20.493,21.839,13.491,3.74,23.207,9.337,25.246,19.024,2.521,11.972-3.995,25.262-18.243,28.785ZM425.718,154.087c17.795-.013,24.588-2.519,27.975-11.761,2.488-6.79.652-18.086-4.036-22.801-5.428-5.458-18.207-5.816-24.479-2.106l.54,36.667ZM347.496,194.854c6.365,3.068,21.992-.775,22.957-6.829,1.934-12.125,1.312-21.886.691-34.579l-23.009,11.654c-4.188,2.121-8.92,9.738-9.448,13.924-.609,4.824,2.692,12.882,8.809,15.83ZM425.829,198.546c11.418,7.508,25.24,2.041,29.327-6.064,4.433-8.791,4.147-21.817-1.805-28.172-5.93-6.331-22.043-9.029-28.088-3.571-.957,11.811-.901,27.957.566,37.807Z"/>
  <path d="M1770.178,127.033c-.006-3.179-6.578-7.724-8.939-8.409-2.829-.822-9.967,3.641-10.011,6.586l-.956,63.411c-.122,8.101,3.588,11.552,10.429,16.208l-35.205.194c4.846-4.327,10.26-9.161,10.199-13.455l-.994-70.069-33.142.022.105,72.351c.004,2.699,4.207,6.977,7.78,11.062l-32.356.176c5.475-5.495,9.196-9.844,9.137-16.057l-.547-57.907c-.04-4.233-3.502-9.561-7.773-15.043l110.505-.455c-1.911,24.163-2.071,44.037-.454,68.513l33.347-58.656c1.983-3.489,3.699-7.847,6.091-9.147,2.87-1.56,12.433-.067,13.065,1.456l-1.273,68.095c-.152,8.148,3.408,14.239,9.59,19.578l-34.49-.645c4.759-4.13,10.231-9.395,10.124-13.852l-1.406-58.61-34.379,62.119c-1.969,3.558-3.871,7.892-5.72,10.007-2.217,2.537-12.391.451-12.583-1.955l-.146-75.517Z"/>
  <path d="M2065.233,204.844c3.532-3.827,8.483-9.208,8.363-13.53l-1.595-57.388-37.874,69.917-14.463.556-.153-75.55c-.005-2.701-4.452-8.999-7.04-8.353s-7.953,4.781-8.959,7.7l-39.523,114.764c-3.619,10.508-13.73,17.907-23.893,16.559-5.072-.673-8.855-21.035-8.024-25.928.611-3.598,7.019,6.487,11.631,8.555,19.068,8.55,21.509-20.118,27.647-34.891l-30.12-78.422c-1.959-5.1-8.306-9.241-13.739-13.039l40.038.176c-3.235,2.128-9.494,9.239-8.056,13.203l19.774,54.54,18.474-54.96c1.127-3.353-3.382-9.093-7.729-12.814l47.267-.562c-1.158,23.513-1.583,42.992.332,66.86l32.844-55.603,5.582-9.707c1.591-2.767,11.751-1.114,13.344,1.115l-.142,73.576c-.009,4.41,4.098,9.27,7.836,13.615l-31.825-.391Z"/>
  <path d="M769.48,127.773c6.593-13.592,19.857-16.549,32.592-17.719,15.89-1.46,29.522,8.432,29.4,24.716l-.385,51.227c-.019,2.507,2.15,10.195,4.6,9.838l11.575-7.806c-1.61,10.553-19.064,22.031-26.389,17.101-2.461-1.656-6.373-9.153-7.468-11.125-12,9.478-33.895,19.976-43.305,8.919-2.807-3.298-5.052-10.178-7.184-16.559l-11.511,10.642c-11.453,10.588-26.689,13.674-41.36,7.86-12.104-4.796-21.179-17.357-23.596-32.694-2.813-17.853,2.82-35.937,15.003-48.234,17.409-17.573,50.984-17.147,57.518-5.84,1.683,2.912,10.264,22.49,7.529,24.504-11.106,8.175-20.86-26.952-38.452-27.766-20.694-.958-33.576,31.946-21.205,61.077,6.028,14.194,20.648,21.061,36.097,17.503,12.988-2.991,20.686-14.461,29.729-23.819,9.89-10.235,27.864-11.42,38.873-20.531,7.719-6.389,2.538-25.748-4.719-31.95-3.126-2.672-14.616-2.999-17.568-.307-2.951,2.692-4.166,8.307-5.33,15.698-.586,3.725-4.998,7.493-9.723,7.8-3.579.232-7.136-7.555-4.721-12.533ZM812.4,187.886c4.296-8.398,2.227-23.249.904-34.231-9.324,4.36-17.266,8.191-24.549,13.371-8.928,6.351-8.617,19.903-2.3,25.451,5.769,5.067,20.367,6.313,25.945-4.592Z"/>
  <path d="M1013.604,115.034l-1.764,19.449-9.189-14.026c-2.593-3.957-13.175-4.531-19.661-3.153l-.508,74.666c-.033,4.855,5.978,9.133,11.2,12.926l-38.884.438,8.18-5.513c1.638-1.104,3.457-6.128,3.449-8.486l-.232-72.94c-4.544-1.758-14.885-1.771-18.346,1.192-4.01,3.433-6.963,9.043-11.208,15.222l1.528-23.084,114.392.259-8.024,7.706-.521,30.776c15.534.477,26.88-.204,38.836,4.311,12.081,4.562,15.057,17.492,13.001,29.267-1.588,9.093-11.501,20.339-24.554,20.578l-53.082.976c5.022-4.783,10.003-10.897,9.884-16.707l-1.288-62.895c-.127-6.226-5.537-11.909-13.21-10.962ZM1077.724,175.839c-.429-8.312-5.148-16.496-10.054-18.223-6.527-2.298-15.794-2.613-23.165-1.232-.52,13.736-.745,26.77,1.254,40.91,1.748,5.735,16.807,4.925,21.813,1.904,6.706-4.047,10.744-11.895,10.153-23.359Z"/>
  <path d="M1872.14,206.038c.644,21.501-8.761,46.768,15.096,52.133l-43.197.243c6.69-4.252,12.538-8.268,12.517-16.818l-.267-107.529c-.01-3.851-7.894-8.122-11.628-9.798l24.857-12.37,5.068,14.642c6.857-9.562,17.794-14.427,30.168-14.222,10.619.176,22.49,8.039,27.624,20.074,8.649,20.274,5.734,45.855-9.774,61.524-13.455,13.595-31.333,15.206-50.463,12.121ZM1914.592,138.726c-3.596-7.71-13.751-12.661-20.843-13.211-6.297-.488-18.916,3.65-21.791,9.353,1.851,29.907-11.342,67.513,21.853,69.039,25.546,1.174,32.495-40.063,20.781-65.18Z"/>
  <path d="M898.988,205.202c3.743-3.351,10.268-7.883,10.348-11.324.482-20.743.504-41.814-1.288-62.91l-36.467,64.482c-2.251,3.98-4.204,7.741-6.296,9.643-2.08,1.89-11.761-1.14-11.793-3.851l.567-74.913c.038-5.065-5.478-9.157-11.26-13.071l28.838-2.7-.103,72.643c12.388-16.556,31.476-56.132,40.868-69.958,1.905-2.804,13.892-.774,13.872,3.278l-.357,74.629c-.029,5.977,4.258,8.792,10.893,13.912l-37.821.139Z"/>
  <path d="M614.409,205.47c5.691-5.244,10.881-9.623,10.793-13.226l-1.482-61.114c-15.435,22.351-29.817,54.442-41.739,73.252-1.441,2.273-10.575-.234-11.859-1.77l.453-77.656c.022-3.698-6.618-8.467-10.658-11.828l27.007-2.608.29,73.542c8.627-11.201,38.332-70.11,42.062-73.147,2.102-1.711,11.081.561,12.466,3.015l-.124,79.738c-.006,3.569,6.467,8.04,10.147,11.145l-37.357.657Z"/>
  <path d="M2767.043,205.238l-32.472.229c1.97-2.037,8.606-7.389,8.63-9.818l.339-33.861-37.935-.149.212,34.368c.016,2.595,7.28,6.18,10.746,8.806l-37.885.1c3.745-2.77,10.886-6.217,10.905-9.141l.427-63.872c.041-6.111-4.011-10.278-8.599-14.634l27.951-1.139c-4.081,14.048-4.29,26.814-2.837,41.184l36.681-.787-.141-27.712c-.017-3.325-5.956-8.692-9.415-11.655l33.151-1.186c-3.809,4.412-7.474,9.641-7.484,12.713l-.206,63.34c-.011,3.408,3.686,7.837,7.934,13.215Z"/>
  <path d="M499.849,207.2c-11.246.542-18.183-8.498-19.373-15.892-4.089-25.406,28.781-31.5,47.884-41.037,3.676-6.958,3.363-20.731-1.143-28.822-2.728-4.899-12.111-7.649-17.029-6.378-14.744,3.812-6.509,25.749-13.878,24.754l-9.196-1.241c-2.682-.362-2.572-8.977-1.207-11.398,6.808-12.077,22.357-18.235,36.294-17.562,14.869.717,24.993,9.633,25.135,25.239l.52,57.174c1.473,2.796,8.421,3.254,14.514,3.43-.199,4.523-8.983,10.241-15.442,11.546-7.6,1.536-13.602-4.772-17.583-12.391-7.737,4.938-18.342,12.04-29.496,12.578ZM529.297,186.684c2.231-11.328,1.267-20.879.063-32.445l-22.147,11.068c-9.341,4.668-12.606,19.499-4.981,27.368,5.838,6.025,24.927,4.862,27.065-5.992Z"/>
  <path d="M158.457,129.99c14.826,23.242,5.104,63.817-20.971,74.049-13.746,5.394-28.658,3.743-40.415-4.661-19.965-14.271-23.178-40.572-14.163-61.992,6.763-16.068,19.218-25.231,34.657-27.354,16.498-2.269,31.49,5.219,40.892,19.957ZM135.53,122.818c-4.13-5.783-13.659-9.726-20.006-8.813-21.477,3.091-27.185,48.137-8.345,77.683,4.849,7.604,14.598,11.656,22.918,10.108,22.104-4.114,26.007-50.172,5.432-78.978Z"/>
  <path d="M1556.431,156.226c22.593,15.273,16.641,32.792,39.822,48.534l-29.393.245c-2.803-7.513-15.075-49.041-29.369-43.377l-.356,32.261c-.038,3.408,6.695,7.736,10.922,10.707-11.939.853-25.983.932-37.967.184,4.705-3.364,10.867-7.31,10.856-10.567l-.21-66.786c-.011-3.393-7.243-8.587-9.469-10.93l33.17-.529c-1.954,2.898-6.753,8.447-6.802,11.036l-.543,28.637c17.049,5.82,29.748-22.666,30.408-28.037.326-2.66-2.542-5.49-6.454-11.576l28.869.82-21.337,16.998-12.147,22.382Z"/>
  <path d="M1673.044,171.372c-5.341,22.278-19.988,35.707-40.428,36.641-20.752.948-37.919-13.699-42.312-35.834-4.767-24.017,10.826-58.651,42.528-59.16,12.451-.2,25.076,5.913,33.111,16.687,8.853,11.871,10.584,27.14,7.102,41.666ZM1645.489,125.839c-3.585-5.238-14.388-9.064-20.26-8.002-4.664.843-11.994,6.684-14.105,12.04-11.536,29.267,1.567,75.65,26.679,73.716,22.057-1.699,29.785-45.466,7.687-77.754Z"/>
  <path d="M319.814,228.826c-5.155-12.482-11.036-23.626-26.501-23.966l-34.466-.757c-16.553-.364-21.544,11.785-27.08,25.279l-.296-26.651c27.732,1.788,30.636-79.533,25.338-91.502l55.593.68-8.168,6.833-.201,67.315c-.008,2.629,1.053,10.014,3.256,11.401,2.645,1.664,7.358,3.136,13.299,5.375.607,6.434.449,15.536-.774,25.994ZM288.582,198.81l-.336-77.581c-5.947-5.698-19.009-6.714-24.196-3.478.028,29.616-5.011,55.236-15.444,81.49l39.977-.432Z"/>
  <path d="M2924.036,176.562c3.065,39.702-50.277,26.963-75.308,29.28,3.604-2.956,8.688-7.89,8.691-11.52l.044-60.099c.005-7.198-4.18-12.262-10.497-17.056,11.17-.509,23.51-.559,34.818.071-11.924,9.555-10.286,24.339-7.045,35.593l24.48,1.037c14.42.611,23.897,10.779,24.817,22.695ZM2903.061,193.927c5.085-10.744,5.164-25.017-3.808-32.135-5.853-4.643-18.119-3.945-25.31-2.527-.032,13.032-2.144,27.486,2.553,38.456,3.708,8.661,22.72,4.33,26.565-3.794Z"/>
  <path d="M23.82,125.135c-11.726,18.12-9.785,42.352,2.614,58.56,12.281,16.055,34.196,12.124,48.614.057-4.427,11.604-16.779,20.42-26.33,22.594-13.875,3.158-27.727-.989-36.585-10.564C-10.003,171.856.435,129.893,25.061,116.569c18.723-10.13,51.332-9.524,49.453,8.666-.256,2.48-3.653,7.22-6.146,7.255-11.064.153-8.972-15.91-23.865-17.46-7.049-.734-15.924,2.752-20.682,10.105Z"/>
  <path d="M2798.944,187.294c13.318,13.724,34.201,8.028,45.931-2.906-3.234,11.23-14.805,19.931-23.442,22.187-14.292,3.733-29.676.537-38.18-8.973-16.169-18.082-14.652-39.616-4.397-60.238,11.387-22.899,44.823-30.825,63.636-17.469,2.595,1.842,1.96,14.126-.906,14.909-13.761,3.763-12.373-14.854-27.326-16.687-6.73-.825-14.771,3.549-19.089,9.772-11.787,16.988-11.935,43.217,3.773,59.404Z"/>
  <path d="M167.528,170.305c8.317,10.686,20.662,35.367,36.276,30.717,11.899-3.543,13.921-17.913,11.209-29.329-2.384-10.034-13.921-13.123-27.222-16.884,11.647-2.744,22.395-4.921,25.416-16.057,2.842-10.476-.911-23.825-14.949-24.69-11.321-.698-18.8,9.136-26.744,19.126-.959-3.801-.106-13.694,2.432-18.146,13.292-4.816,30.704-7.241,43.798-1.771,9.044,3.778,14.978,13.378,13.638,22.597-1.025,7.052-10.702,13.7-19.103,18.556,8.142,4.027,17.988,9.706,20.248,16.019,3.099,8.657,2.036,21.37-4.841,27.408-18.915,16.607-66.175-2.246-60.157-27.546Z"/>
  <path d="M2960.924,205.183l-34.187.442c4.154-4.866,8.88-10.031,8.89-13.602l.165-61.01c.011-4.226-4.999-9.673-9.554-13.752l34.548-.805c-4.266,3.492-8.295,8.362-8.287,12.455l.121,64.202c.006,2.949,3.818,7.102,8.305,12.07Z"/>
  <path d="M1134.878,205.111l-36.934-.199c2.336-2.204,11.629-6.151,11.64-9.741l.207-68.864c.017-5.745-6.994-9.726-11.899-13.456l36.525-1.221c-3.861,3.874-8.544,10.199-8.542,14.425l.032,65.023c.002,3.441,4.825,8.99,8.971,14.033Z"/>
  <path d="M590.569,88.158c6.124-6.889,13.383-14.471,17.861-21.19,2.66-3.99-2.84-14.612-4.222-19.241-2.109-7.061,8.244-11.462,13.67-10.146,7.409,1.797,12.512,10.505,9.543,19.322-5.408,16.064-21.765,27.661-36.852,31.254Z"/>
  <path d="M2061.024,78.63c-6.618,6.319-15.307,11.021-21.875,12.315,20.11-20.322,26.102-54.62,42.907-50.625,4.48,1.065,6.125,12.378,2.352,15.981l-23.384,22.329Z"/>
  <path d="M918.463,44.238c13.518,8.651-35.293,44.132-46.144,44.151l32.921-43.289c1.859-2.444,10.893-2.353,13.224-.862Z"/>
  <path d="M1316.277,172.253c-10.932,24.143-39.617,37.575-64.698,26.343-20.01-8.961-29.143-30.077-26.535-50.809,2.568-20.414,16.878-39.131,38.694-42.776l52.54,67.243Z" style="fill: #fff;"/>
  <path d="M2407.617,179.527c-3.979,15.249-15.776,23.357-31.821,22.106l.358-85.333c15.5-2.098,28.283,9.719,31.802,25.314,2.537,11.244,2.812,25.84-.339,37.913Z" style="fill: #fff;"/>
  <path d="M2359.376,201.37c-15.057,2.571-25.169-7.069-29.174-20.216-6.14-20.156-5.538-66.232,28.982-65.375l.192,85.591Z" style="fill: #fff;"/>
  <path d="M2489.052,145.39l-41.817-.111c1.151-11.63,5.48-22.099,16.438-26.733,6.566-2.776,16.765.816,20.744,6.475,3.494,4.969,5.447,13.905,4.635,20.369Z" style="fill: #fff;"/>
  <path d="M2572.888,194.708c-4.306,6.492-15.121,10.409-21.124,9.567-5.579-.783-17.283-6.863-17.713-12.896-1.402-19.659-1.884-37.245.479-56.143,1.132-9.05,18.856-10.345,26.332-8.375,22.142,5.836,28.449,43.088,12.027,67.847Z" style="fill: #fff;"/>
  <path d="M2660.287,145.038l-42.474.649c.463-10.874,4.573-21.793,15.917-27.002,4.992-2.292,15.988.491,19.616,4.608,4.091,4.642,5.612,11.243,6.941,21.745Z" style="fill: #fff;"/>
  <path d="M2209.08,146.352c6.108,23.352-1.073,56.843-22.346,57.781-7.112.314-22.728-4.56-23.323-13.237-1.357-19.803-1.272-38.306.411-56.94,4.838-8.106,18.847-9.959,27.261-6.856,7.092,2.615,15.42,9.402,17.997,19.251Z" style="fill: #fff;"/>
  <path d="M2288.737,145.271h-41.44c.516-11.325,4.826-21.391,15.407-26.737,4.984-2.518,15.832.484,19.236,4.737,4.144,5.178,5.463,10.737,6.797,22Z" style="fill: #fff;"/>
  <path d="M425.829,198.546c-1.466-9.85-1.522-25.996-.566-37.807,6.045-5.458,22.158-2.76,28.088,3.571,5.952,6.355,6.238,19.381,1.805,28.172-4.088,8.105-17.909,13.572-29.327,6.064Z" style="fill: #fff;"/>
  <path d="M347.496,194.854c-6.117-2.948-9.418-11.006-8.809-15.83.529-4.185,5.261-11.803,9.448-13.924l23.009-11.654c.621,12.693,1.243,22.454-.691,34.579-.966,6.054-16.592,9.897-22.957,6.829Z" style="fill: #fff;"/>
  <path d="M425.718,154.087l-.54-36.667c6.273-3.71,19.052-3.352,24.479,2.106,4.688,4.714,6.524,16.011,4.036,22.801-3.387,9.242-10.18,11.748-27.975,11.761Z" style="fill: #fff;"/>
  <path d="M812.4,187.886c-5.578,10.904-20.176,9.658-25.945,4.592-6.317-5.548-6.628-19.1,2.3-25.451,7.283-5.18,15.225-9.011,24.549-13.371,1.322,10.981,3.391,25.833-.904,34.231Z" style="fill: #fff;"/>
  <path d="M1077.724,175.839c.592,11.463-3.447,19.312-10.153,23.359-5.006,3.021-20.065,3.831-21.813-1.904-2-14.14-1.774-27.174-1.254-40.91,7.372-1.381,16.639-1.066,23.165,1.232,4.906,1.727,9.625,9.911,10.054,18.223Z" style="fill: #fff;"/>
  <path d="M1914.592,138.726c11.714,25.117,4.765,66.355-20.781,65.18-33.196-1.526-20.002-39.132-21.853-69.039,2.875-5.702,15.495-9.84,21.791-9.353,7.092.549,17.247,5.5,20.843,13.211Z" style="fill: #fff;"/>
  <path d="M529.297,186.684c-2.138,10.854-21.227,12.017-27.065,5.992-7.626-7.869-4.36-22.7,4.981-27.368l22.147-11.068c1.203,11.566,2.168,21.117-.063,32.445Z" style="fill: #fff;"/>
  <path d="M135.53,122.818c20.575,28.806,16.672,74.864-5.432,78.978-8.32,1.549-18.069-2.504-22.918-10.108-18.841-29.547-13.133-74.592,8.345-77.683,6.346-.913,15.875,3.03,20.006,8.813Z" style="fill: #fff;"/>
  <path d="M1645.489,125.839c22.099,32.288,14.371,76.055-7.687,77.754-25.112,1.934-38.214-44.449-26.679-73.716,2.111-5.356,9.441-11.197,14.105-12.04,5.872-1.062,16.675,2.764,20.26,8.002Z" style="fill: #fff;"/>
  <path d="M288.582,198.81l-39.977.432c10.433-26.254,15.472-51.874,15.444-81.49,5.188-3.236,18.249-2.22,24.196,3.478l.336,77.581Z" style="fill: #fff;"/>
  <path d="M2903.061,193.927c-3.845,8.124-22.858,12.455-26.565,3.794-4.696-10.97-2.584-25.424-2.553-38.456,7.191-1.418,19.457-2.116,25.31,2.527,8.972,7.118,8.893,21.391,3.808,32.135Z" style="fill: #fff;"/>
</svg>